<svg xmlns="http://www.w3.org/2000/svg" width="256" height="256" viewBox="0 0 256 256">
<defs>
	<filter id="grain"><feTurbulence type="fractalNoise" baseFrequency=".055" numOctaves="4" seed="716"/><feColorMatrix type="saturate" values=".3"/><feBlend mode="multiply" in2="SourceGraphic"/></filter>
	<linearGradient id="shine" x1="0" y1="0" x2="1" y2="1"><stop stop-color="#a37a4e"/><stop offset=".5" stop-color="#664b31"/><stop offset="1" stop-color="#3a2f26"/></linearGradient>
</defs>
<rect width="256" height="256" fill="#664b31"/>
<rect width="256" height="256" filter="url(#grain)" opacity=".52"/>
<g fill="#a37a4e" opacity=".26"><circle cx="209" cy="209" r="2"/><circle cx="0" cy="36" r="3"/><circle cx="47" cy="119" r="4"/><circle cx="94" cy="202" r="5"/><circle cx="141" cy="29" r="6"/><circle cx="188" cy="112" r="7"/><circle cx="235" cy="195" r="2"/><circle cx="26" cy="22" r="3"/><circle cx="73" cy="105" r="4"/><circle cx="120" cy="188" r="5"/><circle cx="167" cy="15" r="6"/><circle cx="214" cy="98" r="7"/><circle cx="5" cy="181" r="2"/><circle cx="52" cy="8" r="3"/><circle cx="99" cy="91" r="4"/><circle cx="146" cy="174" r="5"/><circle cx="193" cy="1" r="6"/><circle cx="240" cy="84" r="7"/><circle cx="31" cy="167" r="2"/><circle cx="78" cy="250" r="3"/><circle cx="125" cy="77" r="4"/><circle cx="172" cy="160" r="5"/><circle cx="219" cy="243" r="6"/><circle cx="10" cy="70" r="7"/><circle cx="57" cy="153" r="2"/><circle cx="104" cy="236" r="3"/><circle cx="151" cy="63" r="4"/><circle cx="198" cy="146" r="5"/><circle cx="245" cy="229" r="6"/><circle cx="36" cy="56" r="7"/><circle cx="83" cy="139" r="2"/><circle cx="130" cy="222" r="3"/><circle cx="177" cy="49" r="4"/><circle cx="224" cy="132" r="5"/><circle cx="15" cy="215" r="6"/><circle cx="62" cy="42" r="7"/><circle cx="109" cy="125" r="2"/><circle cx="156" cy="208" r="3"/><circle cx="203" cy="35" r="4"/><circle cx="250" cy="118" r="5"/><circle cx="41" cy="201" r="6"/><circle cx="88" cy="28" r="7"/><circle cx="135" cy="111" r="2"/><circle cx="182" cy="194" r="3"/><circle cx="229" cy="21" r="4"/><circle cx="20" cy="104" r="5"/><circle cx="67" cy="187" r="6"/><circle cx="114" cy="14" r="7"/><circle cx="161" cy="97" r="2"/><circle cx="208" cy="180" r="3"/><circle cx="255" cy="7" r="4"/><circle cx="46" cy="90" r="5"/><circle cx="93" cy="173" r="6"/><circle cx="140" cy="0" r="7"/><circle cx="187" cy="83" r="2"/><circle cx="234" cy="166" r="3"/><circle cx="25" cy="249" r="4"/><circle cx="72" cy="76" r="5"/><circle cx="119" cy="159" r="6"/><circle cx="166" cy="242" r="7"/><circle cx="213" cy="69" r="2"/><circle cx="4" cy="152" r="3"/><circle cx="51" cy="235" r="4"/><circle cx="98" cy="62" r="5"/><circle cx="145" cy="145" r="6"/><circle cx="192" cy="228" r="7"/><circle cx="239" cy="55" r="2"/><circle cx="30" cy="138" r="3"/><circle cx="77" cy="221" r="4"/><circle cx="124" cy="48" r="5"/></g>
</svg>
